# xmcd
#
# Track frame offsets: 
#        150
#        16724
#        37359
#        54110
#
# Disc length: 899 seconds
#
# Revision: 0
# Processed by: cddbd v1.5PL3 Copyright (c) Steve Scherf et al.
# Submitted via: ExactAudioCopy v0.95a3
#
DISCID=27038104
DTITLE=John McCabe - John McCabe
DYEAR=2003
DGENRE=Country
TTITLE0=Stranger In My House
TTITLE1=Spilled Perfume
TTITLE2=Another Song
TTITLE3=Dizzy Lizzie and Boogie Woogie Joe
EXTD=
EXTT0=
EXTT1=
EXTT2=
EXTT3=
PLAYORDER=
